<?xml version="1.0" encoding="UTF-8"?>
<svg xmlns="http://www.w3.org/2000/svg" width="512" height="512" viewBox="0 0 512 512">
  <defs>
    <!-- Brand gradient -->
    <linearGradient id="bg" x1="0" y1="0" x2="1" y2="1">
      <stop offset="0%" stop-color="#ff8fb1"/>
      <stop offset="100%" stop-color="#ffd6a5"/>
    </linearGradient>
    <!-- Subtle vignette -->
    <radialGradient id="vig" cx="0.2" cy="0.2" r="1.1">
      <stop offset="60%" stop-color="#ffffff" stop-opacity="0"/>
      <stop offset="100%" stop-color="#000000" stop-opacity="0.18"/>
    </radialGradient>
    <!-- Soft white sheen -->
    <linearGradient id="sheen" x1="0" y1="0" x2="0" y2="1">
      <stop offset="0%" stop-color="#ffffff" stop-opacity="0.30"/>
      <stop offset="35%" stop-color="#ffffff" stop-opacity="0.10"/>
      <stop offset="100%" stop-color="#ffffff" stop-opacity="0"/>
    </linearGradient>
  </defs>

  <!-- Rounded squircle background with brand gradient -->
  <rect x="0" y="0" width="512" height="512" rx="108" ry="108" fill="url(#bg)"/>
  <!-- Vignette for depth -->
  <rect x="0" y="0" width="512" height="512" rx="108" ry="108" fill="url(#vig)"/>
  <!-- Top sheen -->
  <rect x="0" y="0" width="512" height="512" rx="108" ry="108" fill="url(#sheen)"/>

  <!-- App glyph: stacked bars + plus fab -->
  <g transform="translate(96,120)">
    <!-- Card/list bars -->
    <g fill="#ffffff" fill-opacity="0.96">
      <rect x="0" y="0" width="320" height="40" rx="20"/>
      <rect x="0" y="88" width="320" height="40" rx="20"/>
      <rect x="0" y="176" width="220" height="40" rx="20"/>
    </g>
    <!-- Plus button with soft shadow -->
    <circle cx="286" cy="196" r="48" fill="#000000" opacity="0.08"/>
    <circle cx="286" cy="188" r="48" fill="#ffffff"/>
    <g fill="#ff8fb1">
      <rect x="280" y="164" width="12" height="48" rx="6"/>
      <rect x="262" y="182" width="48" height="12" rx="6"/>
    </g>
  </g>
</svg>
